<svg width="44" height="38" viewBox="0 0 44 38" fill="#f5f5f5" xmlns="http://www.w3.org/2000/svg">
<path d="M5.10517 0.573818C6.93689 0.573818 8.34318 0.898802 9.32404 1.54877C10.3049 2.18692 10.7953 3.23868 10.7953 4.70406C10.7953 6.18125 10.299 7.25074 9.30631 7.91253C8.31364 8.56249 6.89553 8.88748 5.05199 8.88748H4.1834V13H1.41809V0.892893C2.02078 0.774717 2.65893 0.691994 3.33253 0.644724C4.00614 0.597454 4.59701 0.573818 5.10517 0.573818ZM5.28243 2.93142C5.08153 2.93142 4.88064 2.93733 4.67974 2.94915C4.49066 2.96097 4.32521 2.97278 4.1834 2.9846V6.52987H5.05199C6.00921 6.52987 6.73008 6.39988 7.2146 6.13989C7.69913 5.87991 7.94139 5.39539 7.94139 4.68633C7.94139 4.34362 7.87639 4.06 7.7464 3.83547C7.62822 3.61093 7.45096 3.43367 7.2146 3.30368C6.99007 3.16186 6.71236 3.06732 6.38147 3.02005C6.05057 2.96097 5.68423 2.93142 5.28243 2.93142ZM9.63522 13V0.71563H17.9312V3.03778H12.4006V5.44856H17.3108V7.71754H12.4006V10.6778H18.3389V13H9.63522ZM25.4019 10.6247V13H17.1946V0.71563H19.9599V10.6247H25.4019ZM32.7712 13C32.6412 12.5746 32.4935 12.1373 32.328 11.6883C32.1744 11.2392 32.0208 10.7901 31.8671 10.341H27.081C26.9274 10.7901 26.7679 11.2392 26.6024 11.6883C26.4488 12.1373 26.307 12.5746 26.177 13H23.3053C23.7662 11.6764 24.2034 10.4533 24.6171 9.33064C25.0307 8.20797 25.4325 7.15029 25.8224 6.15762C26.2242 5.16494 26.6142 4.22545 26.9924 3.33913C27.3824 2.44099 27.7842 1.56649 28.1978 0.71563H30.839C31.2408 1.56649 31.6367 2.44099 32.0267 3.33913C32.4166 4.22545 32.8066 5.16494 33.1966 6.15762C33.5984 7.15029 34.0061 8.20797 34.4197 9.33064C34.8333 10.4533 35.2706 11.6764 35.7315 13H32.7712ZM29.4563 3.49867C29.3973 3.67593 29.3086 3.91819 29.1905 4.22545C29.0723 4.5327 28.9364 4.88723 28.7827 5.28903C28.6291 5.69082 28.4578 6.13398 28.2687 6.6185C28.0914 7.10302 27.9082 7.61118 27.7192 8.14297H31.2113C31.0222 7.61118 30.839 7.10302 30.6617 6.6185C30.4845 6.13398 30.3131 5.69082 30.1477 5.28903C29.994 4.88723 29.8581 4.5327 29.74 4.22545C29.6218 3.91819 29.5273 3.67593 29.4563 3.49867ZM37.81 10.8906C38.2 10.8906 38.5191 10.861 38.7673 10.8019C39.0272 10.731 39.234 10.6424 39.3877 10.536C39.5413 10.4179 39.6477 10.282 39.7067 10.1283C39.7658 9.97469 39.7954 9.80334 39.7954 9.61426C39.7954 9.21246 39.6063 8.88157 39.2281 8.62158C38.85 8.34978 38.2 8.06025 37.2782 7.75299C36.8764 7.61118 36.4746 7.45164 36.0728 7.27438C35.6711 7.0853 35.3106 6.85485 34.9915 6.58305C34.6725 6.29943 34.4125 5.96263 34.2116 5.57265C34.0107 5.17085 33.9102 4.68633 33.9102 4.11909C33.9102 3.55184 34.0166 3.04369 34.2293 2.59462C34.442 2.13374 34.7434 1.74376 35.1334 1.42468C35.5233 1.10561 35.996 0.863349 36.5515 0.697903C37.1069 0.520639 37.7332 0.432007 38.4305 0.432007C39.2577 0.432007 39.9726 0.520639 40.5753 0.697903C41.178 0.875167 41.6744 1.07016 42.0644 1.28287L41.2667 3.46321C40.924 3.28595 40.5399 3.13232 40.1145 3.00233C39.7008 2.86052 39.1986 2.78961 38.6077 2.78961C37.9459 2.78961 37.4673 2.88415 37.1719 3.07323C36.8883 3.2505 36.7464 3.52821 36.7464 3.90637C36.7464 4.13091 36.7996 4.31999 36.906 4.47361C37.0123 4.62724 37.1601 4.76905 37.3491 4.89905C37.55 5.01722 37.7746 5.12949 38.0227 5.23585C38.2827 5.33039 38.5664 5.43084 38.8736 5.5372C39.5118 5.77355 40.0672 6.0099 40.5399 6.24625C41.0126 6.47078 41.4026 6.73668 41.7098 7.04394C42.0289 7.35119 42.2653 7.71163 42.4189 8.12524C42.5725 8.53886 42.6493 9.0411 42.6493 9.63198C42.6493 10.7783 42.2475 11.6705 41.4439 12.3087C40.6403 12.935 39.429 13.2482 37.81 13.2482C37.2664 13.2482 36.776 13.2127 36.3387 13.1418C35.9015 13.0827 35.5115 13.0059 35.1688 12.9114C34.8379 12.8168 34.5484 12.7164 34.3002 12.61C34.0639 12.5037 33.863 12.4032 33.6975 12.3087L34.4775 10.1106C34.8438 10.3115 35.2929 10.4947 35.8247 10.6601C36.3683 10.8138 37.0301 10.8906 37.81 10.8906ZM5.01654 9.57382C6.86008 9.57382 8.27228 9.90471 9.25314 10.5665C10.234 11.2165 10.7244 12.2328 10.7244 13.6154C10.7244 14.4781 10.5235 15.1813 10.1217 15.7249C9.73175 16.2567 9.1645 16.6762 8.42 16.9834C8.66817 17.2907 8.92815 17.6452 9.19996 18.047C9.47176 18.437 9.73766 18.8506 9.99764 19.2879C10.2695 19.7133 10.5295 20.1624 10.7776 20.6351C11.0258 21.096 11.2562 21.5509 11.4689 22H8.36682C8.14228 21.5982 7.91184 21.1905 7.67549 20.7769C7.45096 20.3633 7.21461 19.9615 6.96644 19.5715C6.73008 19.1815 6.49373 18.8152 6.25738 18.4725C6.02103 18.1179 5.78468 17.7989 5.54833 17.5152H4.1834V22H1.41809V9.89289C2.02078 9.77472 2.64121 9.69199 3.27935 9.64472C3.92932 9.59745 4.50838 9.57382 5.01654 9.57382ZM5.17607 11.9314C4.97518 11.9314 4.792 11.9373 4.62656 11.9492C4.47293 11.961 4.32521 11.9728 4.1834 11.9846V15.3172H4.96336C6.0033 15.3172 6.74781 15.1872 7.19688 14.9272C7.64595 14.6672 7.87048 14.224 7.87048 13.5977C7.87048 12.995 7.64004 12.5696 7.17915 12.3214C6.73008 12.0614 6.06239 11.9314 5.17607 11.9314ZM14.7161 22.2482C13.8534 22.2482 13.1089 22.13 12.4825 21.8936C11.8562 21.6455 11.3362 21.3087 10.9226 20.8832C10.5208 20.446 10.2195 19.9319 10.0186 19.341C9.82947 18.7384 9.73493 18.0766 9.73493 17.3557V9.71563H12.5003V17.1253C12.5003 17.6216 12.5534 18.047 12.6598 18.4016C12.778 18.7443 12.9316 19.0279 13.1207 19.2524C13.3216 19.4651 13.5579 19.6188 13.8297 19.7133C14.1134 19.8078 14.4206 19.8551 14.7515 19.8551C15.4251 19.8551 15.9687 19.6483 16.3823 19.2347C16.8078 18.8211 17.0205 18.1179 17.0205 17.1253V9.71563H19.7858V17.3557C19.7858 18.0766 19.6853 18.7384 19.4844 19.341C19.2835 19.9437 18.9763 20.4637 18.5627 20.901C18.1491 21.3264 17.6232 21.6573 16.985 21.8936C16.3469 22.13 15.5906 22.2482 14.7161 22.2482ZM27.1334 22C27.0034 21.5746 26.8557 21.1373 26.6902 20.6883C26.5366 20.2392 26.383 19.7901 26.2293 19.341H21.4432C21.2896 19.7901 21.13 20.2392 20.9646 20.6883C20.811 21.1373 20.6692 21.5746 20.5392 22H17.6675C18.1284 20.6764 18.5656 19.4533 18.9792 18.3306C19.3929 17.208 19.7947 16.1503 20.1846 15.1576C20.5864 14.165 20.9764 13.2255 21.3546 12.3391C21.7446 11.441 22.1464 10.5665 22.56 9.71563H25.2012C25.603 10.5665 25.9989 11.441 26.3889 12.3391C26.7788 13.2255 27.1688 14.165 27.5588 15.1576C27.9606 16.1503 28.3683 17.208 28.7819 18.3306C29.1955 19.4533 29.6328 20.6764 30.0937 22H27.1334ZM23.8185 12.4987C23.7595 12.6759 23.6708 12.9182 23.5526 13.2255C23.4345 13.5327 23.2986 13.8872 23.1449 14.289C22.9913 14.6908 22.82 15.134 22.6309 15.6185C22.4536 16.103 22.2704 16.6112 22.0814 17.143H25.5734C25.3844 16.6112 25.2012 16.103 25.0239 15.6185C24.8467 15.134 24.6753 14.6908 24.5099 14.289C24.3562 13.8872 24.2203 13.5327 24.1022 13.2255C23.984 12.9182 23.8894 12.6759 23.8185 12.4987ZM32.1722 19.8906C32.5622 19.8906 32.8813 19.861 33.1294 19.8019C33.3894 19.731 33.5962 19.6424 33.7499 19.536C33.9035 19.4179 34.0098 19.282 34.0689 19.1283C34.128 18.9747 34.1576 18.8033 34.1576 18.6143C34.1576 18.2125 33.9685 17.8816 33.5903 17.6216C33.2122 17.3498 32.5622 17.0603 31.6404 16.753C31.2386 16.6112 30.8368 16.4517 30.435 16.2744C30.0332 16.0853 29.6728 15.8549 29.3537 15.5831C29.0347 15.2994 28.7747 14.9626 28.5738 14.5727C28.3729 14.1709 28.2724 13.6863 28.2724 13.1191C28.2724 12.5519 28.3788 12.0437 28.5915 11.5946C28.8042 11.1337 29.1056 10.7438 29.4955 10.4247C29.8855 10.1056 30.3582 9.86335 30.9136 9.6979C31.4691 9.52064 32.0954 9.43201 32.7926 9.43201C33.6199 9.43201 34.3348 9.52064 34.9375 9.6979C35.5402 9.87517 36.0366 10.0702 36.4265 10.2829L35.6289 12.4632C35.2861 12.286 34.9021 12.1323 34.4766 12.0023C34.063 11.8605 33.5608 11.7896 32.9699 11.7896C32.3081 11.7896 31.8295 11.8842 31.5341 12.0732C31.2504 12.2505 31.1086 12.5282 31.1086 12.9064C31.1086 13.1309 31.1618 13.32 31.2682 13.4736C31.3745 13.6273 31.5223 13.7691 31.7113 13.8991C31.9122 14.0172 32.1368 14.1295 32.3849 14.2359C32.6449 14.3304 32.9285 14.4308 33.2358 14.5372C33.8739 14.7736 34.4294 15.0099 34.9021 15.2463C35.3748 15.4708 35.7648 15.7367 36.072 16.0439C36.3911 16.3512 36.6274 16.7116 36.7811 17.1253C36.9347 17.5389 37.0115 18.0411 37.0115 18.632C37.0115 19.7783 36.6097 20.6705 35.8061 21.3087C35.0025 21.935 33.7912 22.2482 32.1722 22.2482C31.6286 22.2482 31.1382 22.2127 30.7009 22.1418C30.2637 22.0827 29.8737 22.0059 29.531 21.9114C29.2001 21.8168 28.9106 21.7164 28.6624 21.61C28.426 21.5037 28.2252 21.4032 28.0597 21.3087L28.8397 19.1106C29.206 19.3115 29.6551 19.4947 30.1869 19.6601C30.7305 19.8138 31.3923 19.8906 32.1722 19.8906Z" fill="#f5f5f5"/>
<path d="M5.1259 35.144C4.9099 35.144 4.69849 35.1256 4.49169 35.0888C4.28488 35.0521 4.09186 34.9992 3.91262 34.9303C3.73799 34.8613 3.57943 34.774 3.43697 34.6683C3.38182 34.627 3.34276 34.581 3.31978 34.5305C3.30139 34.4753 3.2968 34.4225 3.30599 34.3719C3.31978 34.3168 3.34276 34.2708 3.37493 34.234C3.41169 34.1973 3.45535 34.1766 3.5059 34.172C3.55646 34.1674 3.6116 34.1835 3.67135 34.2202C3.87816 34.3673 4.09875 34.4753 4.33313 34.5442C4.56751 34.6086 4.83177 34.6408 5.1259 34.6408C5.53951 34.6408 5.84513 34.5649 6.04274 34.4133C6.24495 34.257 6.34606 34.0525 6.34606 33.7997C6.34606 33.5929 6.27253 33.4321 6.12546 33.3172C5.983 33.1977 5.74172 33.1035 5.40164 33.0345L4.68471 32.8898C4.25271 32.7979 3.92871 32.6485 3.71271 32.4417C3.50131 32.2303 3.39561 31.95 3.39561 31.6007C3.39561 31.3847 3.43927 31.1894 3.52658 31.0147C3.6139 30.8355 3.73569 30.6838 3.89194 30.5598C4.0482 30.4311 4.23433 30.3323 4.45032 30.2633C4.66632 30.1944 4.9053 30.1599 5.16726 30.1599C5.45679 30.1599 5.72564 30.2013 5.97381 30.284C6.22657 30.3621 6.45406 30.4816 6.65627 30.6425C6.70682 30.6838 6.74129 30.7321 6.75967 30.7872C6.77806 30.8378 6.78035 30.8883 6.76657 30.9389C6.75278 30.9849 6.7275 31.0239 6.69074 31.0561C6.65857 31.0883 6.61491 31.1066 6.55976 31.1112C6.50921 31.1158 6.45176 31.0974 6.38742 31.0561C6.20359 30.9182 6.01287 30.8194 5.81525 30.7597C5.61764 30.6953 5.39934 30.6632 5.16036 30.6632C4.91679 30.6632 4.70539 30.6999 4.52615 30.7735C4.35152 30.847 4.21364 30.955 4.11254 31.0974C4.01603 31.2353 3.96777 31.3962 3.96777 31.58C3.96777 31.8006 4.03441 31.9752 4.16769 32.1039C4.30556 32.2326 4.52845 32.3268 4.83636 32.3865L5.5533 32.5382C6.01746 32.6347 6.35985 32.7818 6.58044 32.9794C6.80563 33.1724 6.91823 33.4367 6.91823 33.7722C6.91823 33.9744 6.87686 34.1605 6.79414 34.3305C6.71142 34.5006 6.59193 34.6476 6.43568 34.7717C6.27942 34.8912 6.091 34.9831 5.8704 35.0475C5.64981 35.1118 5.40164 35.144 5.1259 35.144ZM9.05028 35.144C8.78833 35.144 8.56773 35.098 8.3885 35.0061C8.21386 34.9096 8.08288 34.7717 7.99556 34.5925C7.90824 34.4087 7.86459 34.1858 7.86459 33.9238V32.166H7.40272C7.32459 32.166 7.26484 32.1476 7.22348 32.1108C7.18212 32.0694 7.16144 32.0143 7.16144 31.9454C7.16144 31.8764 7.18212 31.8236 7.22348 31.7868C7.26484 31.75 7.32459 31.7317 7.40272 31.7317H7.86459V30.9389C7.86459 30.847 7.88986 30.778 7.94041 30.7321C7.99097 30.6815 8.0599 30.6563 8.14722 30.6563C8.23454 30.6563 8.30118 30.6815 8.34714 30.7321C8.39769 30.778 8.42297 30.847 8.42297 30.9389V31.7317H9.29156C9.36968 31.7317 9.42943 31.75 9.47079 31.7868C9.51215 31.8236 9.53283 31.8764 9.53283 31.9454C9.53283 32.0143 9.51215 32.0694 9.47079 32.1108C9.42943 32.1476 9.36968 32.166 9.29156 32.166H8.42297V33.8687C8.42297 34.1306 8.47811 34.3305 8.58841 34.4684C8.69871 34.6017 8.87794 34.6683 9.12611 34.6683C9.21343 34.6683 9.28696 34.6591 9.34671 34.6408C9.41105 34.6224 9.4639 34.6132 9.50526 34.6132C9.54662 34.6086 9.58109 34.6224 9.60866 34.6545C9.63624 34.6867 9.65002 34.7419 9.65002 34.82C9.65002 34.8751 9.63853 34.9257 9.61556 34.9716C9.59717 35.0176 9.5627 35.0498 9.51215 35.0682C9.457 35.0865 9.38347 35.1026 9.29156 35.1164C9.20424 35.1348 9.12381 35.144 9.05028 35.144ZM10.3987 35.1302C10.3068 35.1302 10.2356 35.1049 10.185 35.0544C10.1391 35.0038 10.1161 34.9326 10.1161 34.8407V31.966C10.1161 31.8741 10.1391 31.8052 10.185 31.7592C10.231 31.7087 10.2976 31.6834 10.3849 31.6834C10.4723 31.6834 10.5389 31.7087 10.5848 31.7592C10.6354 31.8052 10.6607 31.8741 10.6607 31.966V32.5244H10.5917C10.6653 32.2533 10.8054 32.0442 11.0122 31.8971C11.2191 31.75 11.4741 31.6719 11.7774 31.6627C11.8464 31.6581 11.9015 31.6742 11.9429 31.711C11.9842 31.7431 12.0072 31.8006 12.0118 31.8833C12.0164 31.9614 11.998 32.0235 11.9567 32.0694C11.9153 32.1154 11.851 32.143 11.7636 32.1522L11.6534 32.166C11.3408 32.1935 11.0996 32.2946 10.9295 32.4693C10.7641 32.6393 10.6814 32.8737 10.6814 33.1724V34.8407C10.6814 34.9326 10.6561 35.0038 10.6055 35.0544C10.5596 35.1049 10.4906 35.1302 10.3987 35.1302ZM14.056 35.144C13.7022 35.144 13.3965 35.075 13.1392 34.9372C12.8864 34.7947 12.6888 34.5948 12.5463 34.3374C12.4085 34.0801 12.3395 33.7722 12.3395 33.4137C12.3395 33.0644 12.4085 32.7611 12.5463 32.5037C12.6842 32.2418 12.8726 32.0373 13.1116 31.8902C13.3552 31.7431 13.6355 31.6696 13.9526 31.6696C14.1778 31.6696 14.38 31.7087 14.5593 31.7868C14.7385 31.8603 14.8902 31.9683 15.0142 32.1108C15.1429 32.2533 15.2394 32.4256 15.3038 32.6278C15.3727 32.83 15.4072 33.0575 15.4072 33.3103C15.4072 33.3838 15.3865 33.439 15.3451 33.4757C15.3038 33.5079 15.244 33.524 15.1659 33.524H12.7669V33.1586H15.0349L14.9246 33.2482C14.9246 33.0001 14.8879 32.791 14.8143 32.6209C14.7408 32.4463 14.6328 32.313 14.4903 32.2211C14.3525 32.1292 14.1778 32.0832 13.9664 32.0832C13.732 32.0832 13.5321 32.1384 13.3667 32.2487C13.2058 32.3544 13.084 32.5037 13.0013 32.6968C12.9186 32.8852 12.8772 33.1058 12.8772 33.3585V33.3999C12.8772 33.8227 12.9783 34.1444 13.1806 34.365C13.3874 34.5856 13.6792 34.6959 14.056 34.6959C14.2123 34.6959 14.3662 34.6752 14.5179 34.6339C14.6742 34.5925 14.8258 34.5236 14.9729 34.427C15.0372 34.3857 15.0947 34.3673 15.1452 34.3719C15.2004 34.3719 15.244 34.388 15.2762 34.4202C15.3084 34.4477 15.329 34.4845 15.3382 34.5305C15.352 34.5718 15.3474 34.6178 15.3245 34.6683C15.3061 34.7189 15.267 34.7625 15.2073 34.7993C15.0556 34.9096 14.8764 34.9946 14.6696 35.0544C14.4628 35.1141 14.2582 35.144 14.056 35.144ZM17.725 35.144C17.3711 35.144 17.0655 35.075 16.8081 34.9372C16.5554 34.7947 16.3578 34.5948 16.2153 34.3374C16.0774 34.0801 16.0085 33.7722 16.0085 33.4137C16.0085 33.0644 16.0774 32.7611 16.2153 32.5037C16.3532 32.2418 16.5416 32.0373 16.7806 31.8902C17.0241 31.7431 17.3045 31.6696 17.6216 31.6696C17.8468 31.6696 18.049 31.7087 18.2282 31.7868C18.4074 31.8603 18.5591 31.9683 18.6832 32.1108C18.8119 32.2533 18.9084 32.4256 18.9727 32.6278C19.0417 32.83 19.0761 33.0575 19.0761 33.3103C19.0761 33.3838 19.0554 33.439 19.0141 33.4757C18.9727 33.5079 18.913 33.524 18.8348 33.524H16.4359V33.1586H18.7039L18.5936 33.2482C18.5936 33.0001 18.5568 32.791 18.4833 32.6209C18.4097 32.4463 18.3017 32.313 18.1593 32.2211C18.0214 32.1292 17.8468 32.0832 17.6354 32.0832C17.401 32.0832 17.2011 32.1384 17.0356 32.2487C16.8748 32.3544 16.753 32.5037 16.6703 32.6968C16.5875 32.8852 16.5462 33.1058 16.5462 33.3585V33.3999C16.5462 33.8227 16.6473 34.1444 16.8495 34.365C17.0563 34.5856 17.3481 34.6959 17.725 34.6959C17.8812 34.6959 18.0352 34.6752 18.1869 34.6339C18.3431 34.5925 18.4948 34.5236 18.6418 34.427C18.7062 34.3857 18.7636 34.3673 18.8142 34.3719C18.8693 34.3719 18.913 34.388 18.9451 34.4202C18.9773 34.4477 18.998 34.4845 19.0072 34.5305C19.021 34.5718 19.0164 34.6178 18.9934 34.6683C18.975 34.7189 18.936 34.7625 18.8762 34.7993C18.7246 34.9096 18.5453 34.9946 18.3385 35.0544C18.1317 35.1141 17.9272 35.144 17.725 35.144ZM21.2285 35.144C20.9665 35.144 20.7459 35.098 20.5667 35.0061C20.3921 34.9096 20.2611 34.7717 20.1738 34.5925C20.0864 34.4087 20.0428 34.1858 20.0428 33.9238V32.166H19.5809C19.5028 32.166 19.443 32.1476 19.4017 32.1108C19.3603 32.0694 19.3396 32.0143 19.3396 31.9454C19.3396 31.8764 19.3603 31.8236 19.4017 31.7868C19.443 31.75 19.5028 31.7317 19.5809 31.7317H20.0428V30.9389C20.0428 30.847 20.0681 30.778 20.1186 30.7321C20.1692 30.6815 20.2381 30.6563 20.3254 30.6563C20.4127 30.6563 20.4794 30.6815 20.5253 30.7321C20.5759 30.778 20.6012 30.847 20.6012 30.9389V31.7317H21.4698C21.5479 31.7317 21.6076 31.75 21.649 31.7868C21.6904 31.8236 21.711 31.8764 21.711 31.9454C21.711 32.0143 21.6904 32.0694 21.649 32.1108C21.6076 32.1476 21.5479 32.166 21.4698 32.166H20.6012V33.8687C20.6012 34.1306 20.6563 34.3305 20.7666 34.4684C20.8769 34.6017 21.0561 34.6683 21.3043 34.6683C21.3916 34.6683 21.4652 34.6591 21.5249 34.6408C21.5892 34.6224 21.6421 34.6132 21.6835 34.6132C21.7248 34.6086 21.7593 34.6224 21.7869 34.6545C21.8144 34.6867 21.8282 34.7419 21.8282 34.82C21.8282 34.8751 21.8167 34.9257 21.7938 34.9716C21.7754 35.0176 21.7409 35.0498 21.6904 35.0682C21.6352 35.0865 21.5617 35.1026 21.4698 35.1164C21.3824 35.1348 21.302 35.144 21.2285 35.144ZM24.43 35.1302C24.3381 35.1302 24.2669 35.1049 24.2163 35.0544C24.1704 34.9992 24.1474 34.9257 24.1474 34.8338V30.5115C24.1474 30.415 24.1727 30.3438 24.2232 30.2978C24.2738 30.2472 24.345 30.222 24.4369 30.222H26.0707C26.59 30.222 26.9898 30.3506 27.2702 30.608C27.5505 30.8608 27.6907 31.2192 27.6907 31.6834C27.6907 32.143 27.5505 32.5014 27.2702 32.7588C26.9898 33.0162 26.59 33.1448 26.0707 33.1448H24.7126V34.8338C24.7126 34.9257 24.6897 34.9992 24.6437 35.0544C24.5978 35.1049 24.5265 35.1302 24.43 35.1302ZM24.7126 32.6692H26.0017C26.374 32.6692 26.6543 32.5865 26.8428 32.421C27.0358 32.251 27.1323 32.0051 27.1323 31.6834C27.1323 31.3571 27.0358 31.1112 26.8428 30.9458C26.6543 30.7757 26.374 30.6907 26.0017 30.6907H24.7126V32.6692ZM28.7096 35.1302C28.6177 35.1302 28.5488 35.1049 28.5028 35.0544C28.4569 35.0038 28.4339 34.9326 28.4339 34.8407V30.4563C28.4339 30.3644 28.4569 30.2955 28.5028 30.2495C28.5488 30.199 28.6177 30.1737 28.7096 30.1737C28.797 30.1737 28.8659 30.199 28.9164 30.2495C28.967 30.2955 28.9923 30.3644 28.9923 30.4563V32.4762H28.9027C28.9992 32.2096 29.1554 32.0097 29.3714 31.8764C29.592 31.7386 29.8448 31.6696 30.1297 31.6696C30.3963 31.6696 30.6169 31.7179 30.7915 31.8144C30.9707 31.9109 31.104 32.058 31.1913 32.2556C31.2786 32.4486 31.3223 32.6945 31.3223 32.9932V34.8407C31.3223 34.9326 31.297 35.0038 31.2465 35.0544C31.2005 35.1049 31.1339 35.1302 31.0466 35.1302C30.9546 35.1302 30.8834 35.1049 30.8329 35.0544C30.7869 35.0038 30.7639 34.9326 30.7639 34.8407V33.0277C30.7639 32.7151 30.7019 32.4877 30.5778 32.3452C30.4583 32.1981 30.2653 32.1246 29.9987 32.1246C29.6908 32.1246 29.4449 32.2211 29.2611 32.4141C29.0819 32.6025 28.9923 32.8553 28.9923 33.1724V34.8407C28.9923 35.0337 28.8981 35.1302 28.7096 35.1302ZM33.7444 35.144C33.4181 35.144 33.1355 35.0727 32.8965 34.9303C32.6575 34.7878 32.4714 34.5879 32.3381 34.3305C32.2095 34.0686 32.1451 33.7607 32.1451 33.4068C32.1451 33.1402 32.1819 32.9013 32.2554 32.6899C32.3289 32.4739 32.4369 32.29 32.5794 32.1384C32.7219 31.9867 32.8896 31.8718 33.0826 31.7937C33.2803 31.711 33.5009 31.6696 33.7444 31.6696C34.0707 31.6696 34.3534 31.7409 34.5923 31.8833C34.8313 32.0258 35.0151 32.228 35.1438 32.49C35.2771 32.7473 35.3437 33.0529 35.3437 33.4068C35.3437 33.6734 35.307 33.9123 35.2334 34.1237C35.1599 34.3351 35.0519 34.519 34.9094 34.6752C34.767 34.8269 34.5969 34.9441 34.3993 35.0268C34.2063 35.1049 33.988 35.144 33.7444 35.144ZM33.7444 34.6959C33.9512 34.6959 34.1328 34.6453 34.289 34.5442C34.4453 34.4431 34.5648 34.2961 34.6475 34.1031C34.7348 33.91 34.7785 33.6779 34.7785 33.4068C34.7785 32.9886 34.6843 32.6692 34.4958 32.4486C34.312 32.228 34.0615 32.1177 33.7444 32.1177C33.533 32.1177 33.3492 32.1683 33.1929 32.2694C33.0413 32.3659 32.9218 32.5106 32.8345 32.7037C32.7518 32.8921 32.7104 33.1265 32.7104 33.4068C32.7104 33.8204 32.8046 34.1398 32.993 34.365C33.1815 34.5856 33.4319 34.6959 33.7444 34.6959ZM37.493 35.144C37.2311 35.144 37.0105 35.098 36.8312 35.0061C36.6566 34.9096 36.5256 34.7717 36.4383 34.5925C36.351 34.4087 36.3073 34.1858 36.3073 33.9238V32.166H35.8455C35.7673 32.166 35.7076 32.1476 35.6662 32.1108C35.6249 32.0694 35.6042 32.0143 35.6042 31.9454C35.6042 31.8764 35.6249 31.8236 35.6662 31.7868C35.7076 31.75 35.7673 31.7317 35.8455 31.7317H36.3073V30.9389C36.3073 30.847 36.3326 30.778 36.3832 30.7321C36.4337 30.6815 36.5026 30.6563 36.59 30.6563C36.6773 30.6563 36.7439 30.6815 36.7899 30.7321C36.8404 30.778 36.8657 30.847 36.8657 30.9389V31.7317H37.7343C37.8124 31.7317 37.8722 31.75 37.9135 31.7868C37.9549 31.8236 37.9756 31.8764 37.9756 31.9454C37.9756 32.0143 37.9549 32.0694 37.9135 32.1108C37.8722 32.1476 37.8124 32.166 37.7343 32.166H36.8657V33.8687C36.8657 34.1306 36.9209 34.3305 37.0312 34.4684C37.1415 34.6017 37.3207 34.6683 37.5689 34.6683C37.6562 34.6683 37.7297 34.6591 37.7895 34.6408C37.8538 34.6224 37.9066 34.6132 37.948 34.6132C37.9894 34.6086 38.0238 34.6224 38.0514 34.6545C38.079 34.6867 38.0928 34.7419 38.0928 34.82C38.0928 34.8751 38.0813 34.9257 38.0583 34.9716C38.0399 35.0176 38.0055 35.0498 37.9549 35.0682C37.8997 35.0865 37.8262 35.1026 37.7343 35.1164C37.647 35.1348 37.5666 35.144 37.493 35.144ZM39.9177 35.144C39.5914 35.144 39.3087 35.0727 39.0698 34.9303C38.8308 34.7878 38.6447 34.5879 38.5114 34.3305C38.3827 34.0686 38.3184 33.7607 38.3184 33.4068C38.3184 33.1402 38.3551 32.9013 38.4287 32.6899C38.5022 32.4739 38.6102 32.29 38.7527 32.1384C38.8951 31.9867 39.0629 31.8718 39.2559 31.7937C39.4535 31.711 39.6741 31.6696 39.9177 31.6696C40.244 31.6696 40.5266 31.7409 40.7656 31.8833C41.0046 32.0258 41.1884 32.228 41.3171 32.49C41.4504 32.7473 41.517 33.0529 41.517 33.4068C41.517 33.6734 41.4802 33.9123 41.4067 34.1237C41.3332 34.3351 41.2252 34.519 41.0827 34.6752C40.9402 34.8269 40.7702 34.9441 40.5726 35.0268C40.3796 35.1049 40.1613 35.144 39.9177 35.144ZM39.9177 34.6959C40.1245 34.6959 40.306 34.6453 40.4623 34.5442C40.6185 34.4431 40.738 34.2961 40.8207 34.1031C40.9081 33.91 40.9517 33.6779 40.9517 33.4068C40.9517 32.9886 40.8575 32.6692 40.6691 32.4486C40.4853 32.228 40.2348 32.1177 39.9177 32.1177C39.7063 32.1177 39.5225 32.1683 39.3662 32.2694C39.2145 32.3659 39.095 32.5106 39.0077 32.7037C38.925 32.8921 38.8836 33.1265 38.8836 33.4068C38.8836 33.8204 38.9779 34.1398 39.1663 34.365C39.3547 34.5856 39.6052 34.6959 39.9177 34.6959Z" fill="#f5f5f5"/>
</svg>
